<mxfile host="app.diagrams.net" agent="Mozilla/5.0 (Windows NT 10.0; Win64; x64) AppleWebKit/537.36 (KHTML, like Gecko) Chrome/128.0.0.0 Safari/537.36" version="24.7.8">
  <diagram name="AWS ECS" id="BkyVjev1dfhD57Xma2-c">
    <mxGraphModel dx="1222" dy="1803" grid="1" gridSize="10" guides="1" tooltips="1" connect="1" arrows="1" fold="1" page="1" pageScale="1" pageWidth="827" pageHeight="1169" math="0" shadow="0">
      <root>
        <mxCell id="0" />
        <mxCell id="1" parent="0" />
        <mxCell id="TzrtkAkj8PMj9DlvrME2-40" value="" style="rounded=1;whiteSpace=wrap;html=1;strokeColor=#e57506;" parent="1" vertex="1">
          <mxGeometry x="220" y="91" width="160" height="179" as="geometry" />
        </mxCell>
        <mxCell id="TzrtkAkj8PMj9DlvrME2-33" style="edgeStyle=orthogonalEdgeStyle;rounded=0;orthogonalLoop=1;jettySize=auto;html=1;" parent="1" source="TzrtkAkj8PMj9DlvrME2-6" target="TzrtkAkj8PMj9DlvrME2-10" edge="1">
          <mxGeometry relative="1" as="geometry" />
        </mxCell>
        <mxCell id="TzrtkAkj8PMj9DlvrME2-6" value="Aplication Load Balancer&lt;br&gt;Public Subnet" style="sketch=0;points=[[0,0,0],[0.25,0,0],[0.5,0,0],[0.75,0,0],[1,0,0],[0,1,0],[0.25,1,0],[0.5,1,0],[0.75,1,0],[1,1,0],[0,0.25,0],[0,0.5,0],[0,0.75,0],[1,0.25,0],[1,0.5,0],[1,0.75,0]];outlineConnect=0;fontColor=#232F3E;fillColor=#ED7100;strokeColor=#ffffff;dashed=0;verticalLabelPosition=bottom;verticalAlign=top;align=center;html=1;fontSize=12;fontStyle=0;aspect=fixed;shape=mxgraph.aws4.resourceIcon;resIcon=mxgraph.aws4.elastic_load_balancing;" parent="1" vertex="1">
          <mxGeometry x="271" y="151" width="58" height="58" as="geometry" />
        </mxCell>
        <mxCell id="TzrtkAkj8PMj9DlvrME2-28" style="edgeStyle=orthogonalEdgeStyle;rounded=0;orthogonalLoop=1;jettySize=auto;html=1;entryX=0;entryY=0.5;entryDx=0;entryDy=0;" parent="1" source="TzrtkAkj8PMj9DlvrME2-9" target="TzrtkAkj8PMj9DlvrME2-25" edge="1">
          <mxGeometry relative="1" as="geometry" />
        </mxCell>
        <mxCell id="TzrtkAkj8PMj9DlvrME2-29" style="edgeStyle=orthogonalEdgeStyle;rounded=0;orthogonalLoop=1;jettySize=auto;html=1;" parent="1" source="TzrtkAkj8PMj9DlvrME2-9" target="TzrtkAkj8PMj9DlvrME2-17" edge="1">
          <mxGeometry relative="1" as="geometry" />
        </mxCell>
        <mxCell id="TzrtkAkj8PMj9DlvrME2-30" style="edgeStyle=orthogonalEdgeStyle;rounded=0;orthogonalLoop=1;jettySize=auto;html=1;" parent="1" source="TzrtkAkj8PMj9DlvrME2-9" edge="1">
          <mxGeometry relative="1" as="geometry">
            <mxPoint x="870" y="90" as="targetPoint" />
          </mxGeometry>
        </mxCell>
        <mxCell id="TzrtkAkj8PMj9DlvrME2-9" value="ECS" style="points=[[0,0],[0.25,0],[0.5,0],[0.75,0],[1,0],[1,0.25],[1,0.5],[1,0.75],[1,1],[0.75,1],[0.5,1],[0.25,1],[0,1],[0,0.75],[0,0.5],[0,0.25]];outlineConnect=0;gradientColor=none;html=1;whiteSpace=wrap;fontSize=12;fontStyle=0;container=1;pointerEvents=0;collapsible=0;recursiveResize=0;shape=mxgraph.aws4.group;grIcon=mxgraph.aws4.group_ec2_instance_contents;strokeColor=#D86613;fillColor=none;verticalAlign=top;align=left;spacingLeft=30;fontColor=#D86613;dashed=0;" parent="1" vertex="1">
          <mxGeometry x="410" y="70" width="300" height="200" as="geometry" />
        </mxCell>
        <mxCell id="TzrtkAkj8PMj9DlvrME2-10" value="Webserver" style="sketch=0;outlineConnect=0;fontColor=#232F3E;gradientColor=none;fillColor=#ED7100;strokeColor=none;dashed=0;verticalLabelPosition=bottom;verticalAlign=top;align=center;html=1;fontSize=12;fontStyle=0;aspect=fixed;pointerEvents=1;shape=mxgraph.aws4.container_1;" parent="TzrtkAkj8PMj9DlvrME2-9" vertex="1">
          <mxGeometry x="66" y="50" width="61.94" height="40" as="geometry" />
        </mxCell>
        <mxCell id="TzrtkAkj8PMj9DlvrME2-13" value="Scheduler" style="sketch=0;outlineConnect=0;fontColor=#232F3E;gradientColor=none;fillColor=#ED7100;strokeColor=none;dashed=0;verticalLabelPosition=bottom;verticalAlign=top;align=center;html=1;fontSize=12;fontStyle=0;aspect=fixed;pointerEvents=1;shape=mxgraph.aws4.container_1;" parent="TzrtkAkj8PMj9DlvrME2-9" vertex="1">
          <mxGeometry x="186" y="50" width="61.94" height="40" as="geometry" />
        </mxCell>
        <mxCell id="TzrtkAkj8PMj9DlvrME2-12" value="Flower" style="sketch=0;outlineConnect=0;fontColor=#232F3E;gradientColor=none;fillColor=#ED7100;strokeColor=none;dashed=0;verticalLabelPosition=bottom;verticalAlign=top;align=center;html=1;fontSize=12;fontStyle=0;aspect=fixed;pointerEvents=1;shape=mxgraph.aws4.container_1;" parent="TzrtkAkj8PMj9DlvrME2-9" vertex="1">
          <mxGeometry x="186" y="126.75" width="66.97" height="43.25" as="geometry" />
        </mxCell>
        <mxCell id="TzrtkAkj8PMj9DlvrME2-11" value="Worker" style="sketch=0;outlineConnect=0;fontColor=#232F3E;gradientColor=none;fillColor=#ED7100;strokeColor=none;dashed=0;verticalLabelPosition=bottom;verticalAlign=top;align=center;html=1;fontSize=12;fontStyle=0;aspect=fixed;pointerEvents=1;shape=mxgraph.aws4.container_1;" parent="TzrtkAkj8PMj9DlvrME2-9" vertex="1">
          <mxGeometry x="68.71" y="130" width="61.94" height="40" as="geometry" />
        </mxCell>
        <mxCell id="TzrtkAkj8PMj9DlvrME2-17" value="Amazon EFS" style="outlineConnect=0;dashed=0;verticalLabelPosition=bottom;verticalAlign=top;align=center;html=1;shape=mxgraph.aws3.efs;fillColor=#E05243;gradientColor=none;" parent="1" vertex="1">
          <mxGeometry x="870" y="160" width="66.5" height="63" as="geometry" />
        </mxCell>
        <mxCell id="TzrtkAkj8PMj9DlvrME2-19" value="RDS Postgres" style="image;aspect=fixed;html=1;points=[];align=center;fontSize=12;image=img/lib/azure2/databases/Azure_Database_PostgreSQL_Server.svg;" parent="1" vertex="1">
          <mxGeometry x="879.25" y="50" width="48" height="64" as="geometry" />
        </mxCell>
        <mxCell id="TzrtkAkj8PMj9DlvrME2-20" value="Elastic Cache Redis" style="image;aspect=fixed;html=1;points=[];align=center;fontSize=12;image=img/lib/azure2/databases/Cache_Redis.svg;" parent="1" vertex="1">
          <mxGeometry x="879.25" y="270" width="64" height="52" as="geometry" />
        </mxCell>
        <mxCell id="TzrtkAkj8PMj9DlvrME2-27" value="" style="group" parent="1" vertex="1" connectable="0">
          <mxGeometry x="640" y="-120" width="840" height="540" as="geometry" />
        </mxCell>
        <mxCell id="TzrtkAkj8PMj9DlvrME2-25" value="" style="rounded=1;whiteSpace=wrap;html=1;" parent="TzrtkAkj8PMj9DlvrME2-27" vertex="1">
          <mxGeometry width="180" height="130" as="geometry" />
        </mxCell>
        <mxCell id="TzrtkAkj8PMj9DlvrME2-14" value="" style="outlineConnect=0;dashed=0;verticalLabelPosition=bottom;verticalAlign=top;align=center;html=1;shape=mxgraph.aws3.s3;fillColor=#E05243;gradientColor=none;" parent="TzrtkAkj8PMj9DlvrME2-27" vertex="1">
          <mxGeometry x="20" y="9.285714285714286" width="56.5" height="65" as="geometry" />
        </mxCell>
        <mxCell id="TzrtkAkj8PMj9DlvrME2-16" value="DAGS" style="verticalLabelPosition=bottom;html=1;verticalAlign=top;strokeWidth=1;align=center;outlineConnect=0;dashed=0;outlineConnect=0;shape=mxgraph.aws3d.s3Bucket;fillColor=#4286c5;strokeColor=#57A2D8;aspect=fixed;" parent="TzrtkAkj8PMj9DlvrME2-27" vertex="1">
          <mxGeometry x="100" y="65" width="38.535714285714285" height="39.975" as="geometry" />
        </mxCell>
        <mxCell id="TzrtkAkj8PMj9DlvrME2-32" style="edgeStyle=orthogonalEdgeStyle;rounded=0;orthogonalLoop=1;jettySize=auto;html=1;entryX=0;entryY=0.654;entryDx=0;entryDy=0;entryPerimeter=0;" parent="1" source="TzrtkAkj8PMj9DlvrME2-12" target="TzrtkAkj8PMj9DlvrME2-20" edge="1">
          <mxGeometry relative="1" as="geometry" />
        </mxCell>
        <mxCell id="TzrtkAkj8PMj9DlvrME2-36" value="DNS - UI Airflow" style="outlineConnect=0;dashed=0;verticalLabelPosition=bottom;verticalAlign=top;align=center;html=1;shape=mxgraph.aws3.route_53;fillColor=#F58536;gradientColor=none;" parent="1" vertex="1">
          <mxGeometry x="40" y="123.5" width="70.5" height="85.5" as="geometry" />
        </mxCell>
        <mxCell id="TzrtkAkj8PMj9DlvrME2-42" value="VPC" style="sketch=0;outlineConnect=0;gradientColor=none;html=1;whiteSpace=wrap;fontSize=12;fontStyle=0;shape=mxgraph.aws4.group;grIcon=mxgraph.aws4.group_vpc;strokeColor=#879196;fillColor=none;verticalAlign=top;align=left;spacingLeft=30;fontColor=#879196;dashed=0;" parent="1" vertex="1">
          <mxGeometry x="180" y="-180" width="860" height="610" as="geometry" />
        </mxCell>
        <mxCell id="TzrtkAkj8PMj9DlvrME2-43" style="edgeStyle=orthogonalEdgeStyle;rounded=0;orthogonalLoop=1;jettySize=auto;html=1;entryX=0.058;entryY=0.568;entryDx=0;entryDy=0;entryPerimeter=0;" parent="1" source="TzrtkAkj8PMj9DlvrME2-36" target="TzrtkAkj8PMj9DlvrME2-42" edge="1">
          <mxGeometry relative="1" as="geometry" />
        </mxCell>
        <mxCell id="ct4o8UKPaBUrG6S8chZI-1" value="VPC" style="sketch=0;outlineConnect=0;gradientColor=none;html=1;whiteSpace=wrap;fontSize=12;fontStyle=0;shape=mxgraph.aws4.group;grIcon=mxgraph.aws4.group_vpc;strokeColor=#879196;fillColor=none;verticalAlign=top;align=left;spacingLeft=30;fontColor=#879196;dashed=0;" vertex="1" parent="1">
          <mxGeometry x="300" y="-150" width="690" height="510" as="geometry" />
        </mxCell>
      </root>
    </mxGraphModel>
  </diagram>
</mxfile>
